# xmcd
#
# Track frame offsets:
#	150
#	19490
#	42137
#	61852
#
# Disc length: 1050 seconds
#
# Revision: 0
# Processed by: cddbd v1.4PL0 Copyright (c) Steve Scherf et al.
# Submitted via: dBpowerAMP V4.0
#
DISCID=2c041804
DTITLE=Thomas Ribeiro - My Love Ain't The Kind
DYEAR=1996
DGENRE=Blues
TTITLE0=My Love Ain't The Kind (Radio Version)
TTITLE1=My Love Ain't The Kind (Breakdown Mix)
TTITLE2=Come To Papa
TTITLE3=Mother Ann
EXTD=My Name: David Coulter\nSingle by Thomas Ribeiro
EXTT0=
EXTT1=
EXTT2=
EXTT3=
PLAYORDER=
